<svg xmlns="http://www.w3.org/2000/svg" viewBox="0 0 743 607"><g id="Layer_2" data-name="Layer 2"><g id="Layer_1-2" data-name="Layer 1"><path d="M728.77,371.78c4.47-46.67,27.14-96,4-138.25-6.09-11-14.81-20.47-24.57-29.25-12.9-11.59-27.59-22.05-40.43-33.72C645,149.89,632,125.17,614.5,102.49a168.78,168.78,0,0,0-24.61-26.15q-5.43-4.59-11-9c-30.43-24.15-64.69-44.88-103.64-56.91C420-6.62,354.33-3.9,307.68,27.18c-16.79,11.19-30.39,25.35-43.51,40.12-10.58,11.87-20.81,24.06-32.12,35.19-10.11,10-21.07,19.18-33.87,26.53C180,139.5,159,145.67,139.65,154.47a200.79,200.79,0,0,0-35.21,20.58,197.23,197.23,0,0,0-39.27,37.89c-24.45,31.21-38.28,68.85-37.35,106.74.14,5.93.63,11.9.82,17.85a87.19,87.19,0,0,1-1.13,19.56c-2,10.58-7.07,20.52-12.27,30.37C8.17,400.88.76,414.15.06,428.73c-1.23,25.06,17.3,46.53,37.85,64.88,3.43,3.07,6.93,6.05,10.39,8.95,5.5,4.63,11.17,9.26,16.88,13.83l1.1.89c3.06,2.43,6.13,4.86,9.24,7.26,7.82,6,15.82,11.9,24,17.5q5.5,3.74,11,7.26A300,300,0,0,0,137,564.45c22.35,11.37,46.21,19.68,71.9,23,70.34,8.82,140.32-22.52,211.27-18.37,46.56,2.71,90,20.5,135.09,30.86s97.51,12,133.89-13.59c33.53-23.56,44.52-64.25,44.61-101.88S725.16,409.29,728.77,371.78Z" fill="#ff19b1" opacity="0.5" style="isolation:isolate"/></g></g></svg>