<svg xmlns="http://www.w3.org/2000/svg" viewBox="0 0 809.22 715.21"><g id="Layer_2" data-name="Layer 2"><g id="Layer_1-2" data-name="Layer 1"><path d="M746.85,518.55c24-44,67.06-83.07,61.95-134.33-1.36-13.39-6-26.35-11.91-39.1C789.05,328.31,779,311.84,771.24,295c-13.69-29.89-16.11-59.67-23.83-89.33a180.47,180.47,0,0,0-13.25-36.08c-2.28-4.53-4.63-9.05-7-13.52C707.29,119.49,682.26,84.7,649,56.49c-47.25-39.94-113.06-64.86-172-53.9-21.23,4-40.57,12.16-59.69,21.18-15.4,7.22-30.59,14.92-46.4,21.11-14.16,5.59-28.8,10-44.49,11.86-22.35,2.65-45.58-.11-68.32.43a215.7,215.7,0,0,0-43.31,5.44,211.4,211.4,0,0,0-54.58,20.76C123,103.8,93.52,135,78.53,172.67c-2.35,5.9-4.37,12-6.69,17.9a92.77,92.77,0,0,1-9.32,18.77c-6.46,9.55-15.58,17.21-24.83,24.72-12.6,10.22-25.47,20.16-32.28,34.21-11.74,24.13-2.51,53,10,79.73,2.1,4.46,4.29,8.87,6.47,13.17C25.38,368,29,375,32.72,381.87l.71,1.33c2,3.68,4,7.36,6,11,5.16,9.22,10.57,18.36,16.3,27.31q3.84,6,7.78,11.77a319.75,319.75,0,0,0,19.65,26c17.23,20.58,37.24,38.78,61.14,52.83C209.92,550.38,292,549,360.1,582.88c44.7,22.23,80,58,120.06,87.14s91,52.8,137.54,42.9c42.9-9.07,70.81-44.48,86.7-81.45S727.55,553.93,746.85,518.55Z" fill="#ff5019" opacity="0.5" style="isolation:isolate"/></g></g></svg>